<?xml version="1.0" encoding="UTF-8"?>
<svg width="45px" height="43px" viewBox="0 0 45 43" version="1.1" xmlns="http://www.w3.org/2000/svg" xmlns:xlink="http://www.w3.org/1999/xlink">
    <title>inclusion social</title>
    <g id="Page-1" stroke="none" stroke-width="1" fill="none" fill-rule="evenodd">
        <g id="inclusion-social" fill="#00655C" fill-rule="nonzero">
            <path d="M19.35,10.0333333 L19.35,11.4666667 C19.35,13.0476333 20.6357,14.3333333 22.2166667,14.3333333 C23.7976333,14.3333333 25.0833333,13.0476333 25.0833333,11.4666667 L25.0833333,10.0333333 C25.0833333,8.45236667 23.7976333,7.16666667 22.2166667,7.16666667 C20.6357,7.16666667 19.35,8.45236667 19.35,10.0333333 Z" id="Path"></path>
            <path d="M22.2166667,15.7666667 C21.8862833,15.7666667 21.5659333,15.7258167 21.2563333,15.6548667 C21.0384667,16.0010167 20.7647,16.2962833 20.4479333,16.5349333 C21.44625,17.3712833 22.9878,17.3712833 23.9854,16.5349333 C23.6686333,16.2962833 23.39415,16.0010167 23.177,15.6548667 C22.8674,15.7258167 22.54705,15.7666667 22.2166667,15.7666667 Z" id="Path"></path>
            <path d="M26.5166667,22.9333333 L26.5166667,24.3666667 L37.9833333,24.3666667 L37.9833333,21.2262333 C37.9833333,20.1920833 37.1419667,19.35 36.1071,19.35 L36.0024667,19.35 C35.8182833,19.35 35.6384,19.33065 35.4613833,19.3019833 L35.2033833,19.5599833 C34.41505,20.3490333 33.36585,20.7833333 32.25,20.7833333 C31.1735667,20.7833333 30.1616333,20.37555 29.3833333,19.6388167 L29.3833333,22.2166667 C29.3833333,22.6129833 29.0622667,22.9333333 28.6666667,22.9333333 L26.5166667,22.9333333 Z" id="Path"></path>
            <path d="M32.25,17.9166667 C31.9196167,17.9166667 31.5992667,17.8758167 31.2896667,17.8048667 C31.0718,18.1510167 30.7980333,18.4462833 30.4812667,18.6849333 C31.4795833,19.5212833 33.0211333,19.5212833 34.0187333,18.6849333 C33.7019667,18.4462833 33.4274833,18.1510167 33.2103333,17.8048667 C32.9007333,17.8758167 32.5803833,17.9166667 32.25,17.9166667 L32.25,17.9166667 Z" id="Path"></path>
            <path d="M16.4833333,19.0762333 L16.4833333,21.5 L27.95,21.5 L27.95,19.0762333 C27.95,18.0420833 27.1086333,17.2 26.0737667,17.2 L25.9691333,17.2 C25.78495,17.2 25.6050667,17.18065 25.42805,17.1519833 L25.17005,17.4099833 C24.3817167,18.1990333 23.3325167,18.6333333 22.2166667,18.6333333 C21.1008167,18.6333333 20.0516167,18.1990333 19.2632833,17.4099833 L19.0052833,17.1519833 C18.8282667,17.18065 18.6483833,17.2 18.4642,17.2 L18.3595667,17.2 C17.3247,17.2 16.4833333,18.0420833 16.4833333,19.0762333 L16.4833333,19.0762333 Z" id="Path"></path>
            <path d="M9.31666667,13.6166667 C9.31666667,15.1976333 10.6023667,16.4833333 12.1833333,16.4833333 C13.7643,16.4833333 15.05,15.1976333 15.05,13.6166667 L15.05,12.1833333 C15.05,10.6023667 13.7643,9.31666667 12.1833333,9.31666667 C10.6023667,9.31666667 9.31666667,10.6023667 9.31666667,12.1833333 L9.31666667,13.6166667 Z" id="Path"></path>
            <path d="M17.9166667,22.9333333 L15.7666667,22.9333333 C15.3710667,22.9333333 15.05,22.6129833 15.05,22.2166667 L15.05,19.6388167 C14.2717,20.37555 13.2597667,20.7833333 12.1833333,20.7833333 C11.0674833,20.7833333 10.0182833,20.3490333 9.22995,19.5599833 L8.97195,19.3019833 C8.79493333,19.33065 8.61505,19.35 8.43086667,19.35 L8.32623333,19.35 C7.29136667,19.35 6.45,20.1920833 6.45,21.2262333 L6.45,24.3666667 L17.9166667,24.3666667 L17.9166667,22.9333333 Z" id="Path"></path>
            <path d="M12.1833333,17.9166667 C11.85295,17.9166667 11.5326,17.8758167 11.223,17.8048667 C11.0051333,18.1510167 10.7313667,18.4462833 10.4146,18.6849333 C11.4129167,19.5212833 12.9544667,19.5212833 13.9520667,18.6849333 C13.6353,18.4462833 13.3608167,18.1510167 13.1436667,17.8048667 C12.8340667,17.8758167 12.5137167,17.9166667 12.1833333,17.9166667 Z" id="Path"></path>
            <path d="M32.25,16.4833333 C33.8309667,16.4833333 35.1166667,15.1976333 35.1166667,13.6166667 L35.1166667,12.1833333 C35.1166667,10.6023667 33.8309667,9.31666667 32.25,9.31666667 C30.6690333,9.31666667 29.3833333,10.6023667 29.3833333,12.1833333 L29.3833333,13.6166667 C29.3833333,15.1976333 30.6690333,16.4833333 32.25,16.4833333 Z" id="Path"></path>
            <polygon id="Path" points="7.16666667 28.6666667 10.0333333 28.6666667 10.0333333 41.5666667 7.16666667 41.5666667"></polygon>
            <path d="M40.291,31.7117833 L25.6631167,35.7014667 C25.69895,36.4475167 25.4416667,37.2050333 24.87335,37.77335 C24.3387167,38.3079833 23.6356667,38.5753 22.9333333,38.5753 C22.231,38.5753 21.52795,38.3079833 20.9933167,37.77335 L17.4099833,34.1900167 L18.42335,33.17665 L22.0066833,36.7599833 C22.5176667,37.2709667 23.349,37.2709667 23.8599833,36.7599833 C24.3709667,36.249 24.3709667,35.4176667 23.8599833,34.9066833 L19.0533,30.1 L11.4666667,30.1 L11.4666667,40.1333333 L16.4833333,40.1333333 C16.5600167,40.1333333 16.6367,40.1462333 16.7098,40.1706 L20.77975,41.52725 L43,33.8883 L43,33.6833333 C43,33.2741167 42.8846167,32.8749333 42.6653167,32.5309333 C42.1973333,31.7942 41.2212333,31.4573667 40.291,31.7117833 Z" id="Path"></path>
            <polygon id="Path" points="1.43333333 43 5.73333333 43 5.73333333 42.2833333 5.73333333 28.6666667 1.43333333 28.6666667"></polygon>
            <path d="M25.9383167,0.310316667 C25.4660333,0.230766667 24.9787,0.164833333 24.4885,0.114666667 L24.3430167,1.54083333 C24.7995333,1.5867 25.25175,1.64761667 25.69895,1.7243 L25.9383167,0.310316667 Z" id="Path"></path>
            <path d="M44.4290333,21.7830833 L42.9957,21.8110333 C42.9985667,21.9464833 43,22.0819333 43,22.2166667 C43,22.5391667 42.9928333,22.86095 42.9777833,23.1798667 L44.4096833,23.2458 C44.42545,22.9046667 44.4333333,22.5613833 44.4333333,22.2166667 C44.4333333,22.0719 44.4319,21.9271333 44.4290333,21.7830833 Z" id="Path"></path>
            <path d="M42.6746333,25.8996167 L44.08575,26.1533167 C44.1710333,25.6767333 44.2419833,25.1894 44.2957333,24.7049333 L42.871,24.5458333 C42.8208333,25.0016333 42.7549,25.4531333 42.6746333,25.8996167 Z" id="Path"></path>
            <path d="M31.5182833,2.03461667 C31.07395,1.82965 30.6195833,1.6383 30.1680833,1.46558333 L29.6556667,2.8036 C30.0835167,2.96771667 30.5042,3.14545 30.9177167,3.33608333 L31.5182833,2.03461667 Z" id="Path"></path>
            <path d="M28.7827667,0.986133333 C28.3183667,0.843516667 27.8482333,0.714516667 27.37165,0.601283333 L27.0391167,1.9952 C27.4856,2.10126667 27.9256333,2.22166667 28.3599333,2.3564 L28.7827667,0.986133333 Z" id="Path"></path>
            <path d="M34.0889667,3.43498333 C33.6804667,3.17626667 33.2554833,2.92615 32.8262,2.69251667 L32.1417833,3.95241667 C32.5431167,4.171 32.9365667,4.40176667 33.3214167,4.64615 L34.0889667,3.43498333 Z" id="Path"></path>
            <path d="M42.0160167,28.5555833 L43.3812667,28.9920333 C43.5303333,28.5262 43.66435,28.0517667 43.78045,27.5830667 L42.3894,27.2390667 C42.2790333,27.6841167 42.1543333,28.1227167 42.0160167,28.5555833 L42.0160167,28.5555833 Z" id="Path"></path>
            <path d="M39.2303333,10.2784333 L40.4028,9.45426667 C40.1225833,9.05508333 39.82875,8.66521667 39.52345,8.2861 L38.4061667,9.1848 C38.6928333,9.54026667 38.9680333,9.90433333 39.2303333,10.2784333 L39.2303333,10.2784333 Z" id="Path"></path>
            <path d="M41.7544333,15.11235 L43.1017667,14.62215 C42.9347833,14.1634833 42.7513167,13.7076833 42.5571,13.2662167 L41.2456,13.8445667 C41.42835,14.2602333 41.5982,14.6830667 41.7544333,15.11235 L41.7544333,15.11235 Z" id="Path"></path>
            <path d="M4.53865,11.2832 L3.32103333,10.5271167 C3.06518333,10.9399167 2.81936667,11.36705 2.59075,11.7963333 L3.85566667,12.47 C4.07066667,12.0665167 4.29785,11.6709167 4.53865,11.2832 L4.53865,11.2832 Z" id="Path"></path>
            <path d="M40.6522,12.6133333 L41.92285,11.9497 C41.6985333,11.5204167 41.4570167,11.0925667 41.2040333,10.6776167 L39.9799667,11.4222333 C40.2171833,11.8106667 40.4415,12.2084167 40.6522,12.6133333 L40.6522,12.6133333 Z" id="Path"></path>
            <path d="M38.56885,7.17741667 C38.2427667,6.82266667 37.8973333,6.4715 37.5433,6.13395 L36.5543,7.17096667 C36.8839667,7.48558333 37.2043167,7.81095 37.5132,8.14706667 L38.56885,7.17741667 Z" id="Path"></path>
            <path d="M42.5169667,17.7389333 L43.9166167,17.4307667 C43.8119833,16.9549 43.6908667,16.4783167 43.5561333,16.0132 L42.1794167,16.4123833 C42.30555,16.84955 42.4180667,17.2917333 42.5169667,17.7389333 L42.5169667,17.7389333 Z" id="Path"></path>
            <path d="M36.4525333,5.15928333 C36.0784333,4.84753333 35.69,4.54366667 35.2994167,4.25843333 L34.4544667,5.41585 C34.82355,5.68531667 35.1833167,5.96696667 35.53305,6.25936667 L36.4525333,5.15928333 Z" id="Path"></path>
            <path d="M42.9254667,20.4436333 L44.3537833,20.3218 C44.3122167,19.8330333 44.2548833,19.3492833 44.1825,18.8698333 L42.7649333,19.0841167 C42.8337333,19.53275 42.8867667,19.9864 42.9254667,20.4436333 L42.9254667,20.4436333 Z" id="Path"></path>
            <path d="M12.43345,3.87501667 L11.75835,2.61081667 C11.32835,2.84015 10.90265,3.08596667 10.492,3.34253333 L11.25095,4.55871667 C11.6358,4.31791667 12.0306833,4.09001667 12.43345,3.87501667 Z" id="Path"></path>
            <path d="M10.1128833,5.31838333 L9.27581667,4.15523333 C8.88021667,4.43975 8.49321667,4.73716667 8.11696667,5.04605 L9.02785,6.1533 C9.37973333,5.86376667 9.74236667,5.58498333 10.1128833,5.31838333 Z" id="Path"></path>
            <path d="M14.9224333,2.74985 L14.4193333,1.40753333 C13.9628167,1.57881667 13.50845,1.76658333 13.0691333,1.9651 L13.6596667,3.27086667 C14.0739,3.08381667 14.4953,2.91038333 14.9224333,2.74985 Z" id="Path"></path>
            <path d="M4.1323,9.3095 L5.2976,10.1437 C5.5642,9.77175 5.84155,9.40911667 6.13108333,9.05508333 L5.02096667,8.1485 C4.7128,8.52546667 4.4161,8.91318333 4.1323,9.3095 L4.1323,9.3095 Z" id="Path"></path>
            <path d="M7.99871667,7.05916667 L7.01975,6.01211667 C6.6693,6.33963333 6.32171667,6.68793333 5.9856,7.0477 L7.03336667,8.02595 C7.34655,7.68911667 7.67191667,7.36375 7.99871667,7.05916667 Z" id="Path"></path>
            <path d="M3.25223333,13.7012333 L1.94575,13.1135667 C1.74723333,13.5536 1.56018333,14.0101167 1.38961667,14.4687833 L2.73265,14.9683 C2.89175,14.5390167 3.06518333,14.1161833 3.25223333,13.7012333 Z" id="Path"></path>
            <path d="M2.29763333,16.26475 L0.923783333,15.8548167 C0.78475,16.3228 0.659333333,16.7986667 0.55255,17.27095 L1.95005,17.5884333 C2.05181667,17.1412333 2.16791667,16.7004833 2.29763333,16.26475 Z" id="Path"></path>
            <path d="M17.5404167,1.9608 L17.2207833,0.564016667 C16.7477833,0.672233333 16.2712,0.798366667 15.8053667,0.938833333 L16.2196,2.31053333 C16.6539,2.1801 17.0982333,2.06256667 17.5404167,1.9608 L17.5404167,1.9608 Z" id="Path"></path>
            <path d="M20.2408167,1.5265 L20.1075167,0.0989 C19.62735,0.143333333 19.1385833,0.205683333 18.65555,0.284516667 L18.8841667,1.69993333 C19.3320833,1.62755 19.7843,1.56806667 20.2408167,1.5265 Z" id="Path"></path>
            <path d="M1.43333333,22.2166667 C1.43333333,22.0289 1.43548333,21.8432833 1.4405,21.6576667 L0.00788333333,21.61825 C0.00215,21.81605 -3.18263934e-16,22.0167167 -3.18263934e-16,22.2173833 C-3.18263934e-16,22.5062 0.00573333333,22.7943 0.0164833333,23.0809667 L1.4491,23.0265 C1.43835,22.75775 1.43333333,22.48685 1.43333333,22.2166667 L1.43333333,22.2166667 Z" id="Path"></path>
            <path d="M1.69133333,18.9321833 L0.2752,18.7085833 C0.199233333,19.18875 0.138316667,19.6768 0.0938833333,20.1591167 L1.52076667,20.2909833 C1.56305,19.8330333 1.62038333,19.3801 1.69133333,18.9321833 Z" id="Path"></path>
            <path d="M22.1550333,1.43333333 C22.4273667,1.4319 22.7054333,1.43763333 22.9784833,1.44695 L23.0279333,0.01505 C22.7591833,0.00501666667 22.4882833,2.38700661e-16 22.2188167,2.38700661e-16 C21.9995167,-0.000716666667 21.7823667,0.00215 21.5652167,0.0086 L21.6089333,1.44193333 C21.7895333,1.4362 21.97085,1.43333333 22.1550333,1.43333333 L22.1550333,1.43333333 Z" id="Path"></path>
            <path d="M1.54585,24.3924667 L0.1204,24.5408167 C0.171283333,25.0295833 0.237933333,25.5119 0.319633333,25.9899167 L1.7329,25.7476833 C1.6555,25.3012 1.59315,24.8489833 1.54585,24.3924667 Z" id="Path"></path>
        </g>
    </g>
</svg>